<svg width="24" height="24" viewBox="0 0 24 24" fill="none" xmlns="http://www.w3.org/2000/svg">
<g clip-path="url(#clip0_138_25)">
<path d="M3 24H12V15.75H9V12H12V9C12 7.80653 12.4741 6.66193 13.318 5.81802C14.1619 4.97411 15.3065 4.5 16.5 4.5H19.5V8.25H18C17.172 8.25 16.5 8.172 16.5 9V12H20.25L18.75 15.75H16.5V24H21C22.654 24 24 22.654 24 21V3C24 1.345 22.654 0 21 0H3C1.345 0 0 1.345 0 3V21C0 22.654 1.345 24 3 24Z" fill="black"/>
</g>
<defs>
<clipPath id="clip0_138_25">
<rect width="24" height="24" fill="white"/>
</clipPath>
</defs>
</svg>
