<svg width="24" height="24" viewBox="0 0 24 24" fill="none" xmlns="http://www.w3.org/2000/svg">
<g clip-path="url(#clip0_137_7)">
<path d="M12.0039 5.838C11.1952 5.83787 10.3944 5.99706 9.64723 6.30648C8.90004 6.6159 8.22114 7.06949 7.64929 7.64134C7.07744 8.21319 6.62385 8.8921 6.31443 9.63928C6.00501 10.3865 5.84582 11.1873 5.84595 11.996C5.84582 12.8047 6.00501 13.6055 6.31443 14.3527C6.62385 15.0999 7.07744 15.7788 7.64929 16.3507C8.22114 16.9225 8.90004 17.3761 9.64723 17.6855C10.3944 17.9949 11.1952 18.1541 12.0039 18.154C12.8127 18.1541 13.6135 17.9949 14.3607 17.6855C15.1079 17.3761 15.7868 16.9225 16.3586 16.3507C16.9305 15.7788 17.384 15.0999 17.6935 14.3527C18.0029 13.6055 18.1621 12.8047 18.1619 11.996C18.1621 11.1873 18.0029 10.3865 17.6935 9.63928C17.384 8.8921 16.9305 8.21319 16.3586 7.64134C15.7868 7.06949 15.1079 6.6159 14.3607 6.30648C13.6135 5.99706 12.8127 5.83787 12.0039 5.838ZM12.0039 15.993C11.2137 15.9928 10.4413 15.7583 9.78427 15.3191C9.12728 14.88 8.61526 14.2559 8.31293 13.5257C8.01061 12.7956 7.93156 11.9922 8.08578 11.2172C8.24 10.4421 8.62056 9.73019 9.17935 9.1714C9.73814 8.61261 10.4501 8.23205 11.2251 8.07783C12.0002 7.92361 12.8036 8.00266 13.5337 8.30498C14.2638 8.60731 14.8879 9.11933 15.3271 9.77632C15.7662 10.4333 16.0008 11.2057 16.0009 11.996C16.0012 12.521 15.898 13.0408 15.6972 13.5259C15.4965 14.011 15.202 14.4517 14.8308 14.8229C14.4596 15.1941 14.0189 15.4885 13.5338 15.6893C13.0488 15.8901 12.5289 15.9933 12.0039 15.993Z" fill="black"/>
<path d="M16.948 0.075997C14.74 -0.027003 9.27098 -0.022003 7.06098 0.075997C5.11898 0.166997 3.40598 0.635997 2.02498 2.017C-0.283017 4.325 0.0119831 7.435 0.0119831 11.996C0.0119831 16.664 -0.248017 19.702 2.02498 21.975C4.34198 24.291 7.49698 23.988 12.004 23.988C16.628 23.988 18.224 23.991 19.859 23.358C22.082 22.495 23.76 20.508 23.924 16.939C24.028 14.73 24.022 9.262 23.924 7.052C23.726 2.839 21.465 0.283997 16.948 0.075997ZM20.443 20.448C18.93 21.961 16.831 21.826 11.975 21.826C6.97498 21.826 4.96998 21.9 3.50698 20.433C1.82198 18.756 2.12698 16.063 2.12698 11.98C2.12698 6.455 1.55998 2.476 7.10498 2.192C8.37898 2.147 8.75398 2.132 11.961 2.132L12.006 2.162C17.335 2.162 21.516 1.604 21.767 7.148C21.824 8.413 21.837 8.793 21.837 11.995C21.836 16.937 21.93 18.954 20.443 20.448Z" fill="black"/>
<path d="M18.406 7.03399C19.2008 7.03399 19.845 6.38973 19.845 5.59499C19.845 4.80025 19.2008 4.15599 18.406 4.15599C17.6113 4.15599 16.967 4.80025 16.967 5.59499C16.967 6.38973 17.6113 7.03399 18.406 7.03399Z" fill="black"/>
</g>
<defs>
<clipPath id="clip0_137_7">
<rect width="24" height="24" fill="white"/>
</clipPath>
</defs>
</svg>
