<svg width="48" height="48" viewBox="0 0 48 48" fill="none" xmlns="http://www.w3.org/2000/svg">
<rect x="5" y="16" width="38" height="15" rx="7.5" stroke="#3F4945" stroke-width="2"/>
<path d="M11.6218 24.766C11.4978 24.766 11.3938 24.716 11.3098 24.616C11.2298 24.512 11.1898 24.408 11.1898 24.304C11.1898 24.132 11.3038 23.98 11.5318 23.848L12.0118 23.572L11.5318 23.296C11.3038 23.16 11.1898 23.01 11.1898 22.846C11.1898 22.73 11.2318 22.622 11.3158 22.522C11.3998 22.422 11.5018 22.372 11.6218 22.372C11.7338 22.372 11.8578 22.412 11.9938 22.492L12.4798 22.768V22.216C12.4798 21.828 12.6338 21.634 12.9418 21.634C13.0818 21.634 13.1918 21.682 13.2718 21.778C13.3558 21.874 13.3978 22.02 13.3978 22.216V22.768L13.8778 22.492C14.0178 22.412 14.1438 22.372 14.2558 22.372C14.3798 22.372 14.4818 22.424 14.5618 22.528C14.6418 22.632 14.6818 22.736 14.6818 22.84C14.6818 23.012 14.5678 23.164 14.3398 23.296L13.8598 23.572L14.3398 23.848C14.5678 23.976 14.6818 24.128 14.6818 24.304C14.6818 24.416 14.6398 24.522 14.5558 24.622C14.4718 24.718 14.3698 24.766 14.2498 24.766C14.1458 24.766 14.0218 24.726 13.8778 24.646L13.3978 24.364V24.928C13.3978 25.124 13.3558 25.27 13.2718 25.366C13.1918 25.458 13.0818 25.504 12.9418 25.504C12.7978 25.504 12.6838 25.458 12.5998 25.366C12.5198 25.27 12.4798 25.124 12.4798 24.928V24.364L11.9938 24.646C11.8538 24.726 11.7298 24.766 11.6218 24.766ZM19.157 24.766C19.033 24.766 18.929 24.716 18.845 24.616C18.765 24.512 18.725 24.408 18.725 24.304C18.725 24.132 18.839 23.98 19.067 23.848L19.547 23.572L19.067 23.296C18.839 23.16 18.725 23.01 18.725 22.846C18.725 22.73 18.767 22.622 18.851 22.522C18.935 22.422 19.037 22.372 19.157 22.372C19.269 22.372 19.393 22.412 19.529 22.492L20.015 22.768V22.216C20.015 21.828 20.169 21.634 20.477 21.634C20.617 21.634 20.727 21.682 20.807 21.778C20.891 21.874 20.933 22.02 20.933 22.216V22.768L21.413 22.492C21.553 22.412 21.679 22.372 21.791 22.372C21.915 22.372 22.017 22.424 22.097 22.528C22.177 22.632 22.217 22.736 22.217 22.84C22.217 23.012 22.103 23.164 21.875 23.296L21.395 23.572L21.875 23.848C22.103 23.976 22.217 24.128 22.217 24.304C22.217 24.416 22.175 24.522 22.091 24.622C22.007 24.718 21.905 24.766 21.785 24.766C21.681 24.766 21.557 24.726 21.413 24.646L20.933 24.364V24.928C20.933 25.124 20.891 25.27 20.807 25.366C20.727 25.458 20.617 25.504 20.477 25.504C20.333 25.504 20.219 25.458 20.135 25.366C20.055 25.27 20.015 25.124 20.015 24.928V24.364L19.529 24.646C19.389 24.726 19.265 24.766 19.157 24.766ZM26.6921 24.766C26.5681 24.766 26.4641 24.716 26.3801 24.616C26.3001 24.512 26.2601 24.408 26.2601 24.304C26.2601 24.132 26.3741 23.98 26.6021 23.848L27.0821 23.572L26.6021 23.296C26.3741 23.16 26.2601 23.01 26.2601 22.846C26.2601 22.73 26.3021 22.622 26.3861 22.522C26.4701 22.422 26.5721 22.372 26.6921 22.372C26.8041 22.372 26.9281 22.412 27.0641 22.492L27.5501 22.768V22.216C27.5501 21.828 27.7041 21.634 28.0121 21.634C28.1521 21.634 28.2621 21.682 28.3421 21.778C28.4261 21.874 28.4681 22.02 28.4681 22.216V22.768L28.9481 22.492C29.0881 22.412 29.2141 22.372 29.3261 22.372C29.4501 22.372 29.5521 22.424 29.6321 22.528C29.7121 22.632 29.7521 22.736 29.7521 22.84C29.7521 23.012 29.6381 23.164 29.4101 23.296L28.9301 23.572L29.4101 23.848C29.6381 23.976 29.7521 24.128 29.7521 24.304C29.7521 24.416 29.7101 24.522 29.6261 24.622C29.5421 24.718 29.4401 24.766 29.3201 24.766C29.2161 24.766 29.0921 24.726 28.9481 24.646L28.4681 24.364V24.928C28.4681 25.124 28.4261 25.27 28.3421 25.366C28.2621 25.458 28.1521 25.504 28.0121 25.504C27.8681 25.504 27.7541 25.458 27.6701 25.366C27.5901 25.27 27.5501 25.124 27.5501 24.928V24.364L27.0641 24.646C26.9241 24.726 26.8001 24.766 26.6921 24.766ZM34.2273 24.766C34.1033 24.766 33.9993 24.716 33.9153 24.616C33.8353 24.512 33.7953 24.408 33.7953 24.304C33.7953 24.132 33.9093 23.98 34.1373 23.848L34.6173 23.572L34.1373 23.296C33.9093 23.16 33.7953 23.01 33.7953 22.846C33.7953 22.73 33.8373 22.622 33.9213 22.522C34.0053 22.422 34.1073 22.372 34.2273 22.372C34.3393 22.372 34.4633 22.412 34.5993 22.492L35.0853 22.768V22.216C35.0853 21.828 35.2393 21.634 35.5473 21.634C35.6873 21.634 35.7973 21.682 35.8773 21.778C35.9613 21.874 36.0033 22.02 36.0033 22.216V22.768L36.4833 22.492C36.6233 22.412 36.7493 22.372 36.8613 22.372C36.9853 22.372 37.0873 22.424 37.1673 22.528C37.2473 22.632 37.2873 22.736 37.2873 22.84C37.2873 23.012 37.1733 23.164 36.9453 23.296L36.4653 23.572L36.9453 23.848C37.1733 23.976 37.2873 24.128 37.2873 24.304C37.2873 24.416 37.2453 24.522 37.1613 24.622C37.0773 24.718 36.9753 24.766 36.8553 24.766C36.7513 24.766 36.6273 24.726 36.4833 24.646L36.0033 24.364V24.928C36.0033 25.124 35.9613 25.27 35.8773 25.366C35.7973 25.458 35.6873 25.504 35.5473 25.504C35.4033 25.504 35.2893 25.458 35.2053 25.366C35.1253 25.27 35.0853 25.124 35.0853 24.928V24.364L34.5993 24.646C34.4593 24.726 34.3353 24.766 34.2273 24.766Z" fill="#3F4945"/>
</svg>
